<?xml version="1.0" encoding="UTF-8"?>
<svg id="Layer_1" data-name="Layer 1" xmlns="http://www.w3.org/2000/svg" viewBox="0 0 603 213">
  <defs>
    <style>
      .cls-1 {
        fill: gray;
      }
    </style>
  </defs>
  <g>
    <path class="cls-1" d="M174.97,86.76h10.81c5.81,0,9.83.44,12.05,1.31,2.22.87,3.96,2.31,5.2,4.32,1.24,2.01,1.86,4.31,1.86,6.91,0,2.39-.56,4.37-1.67,5.93-1.12,1.56-3.05,2.9-5.81,4.02l7.2,17.56h-7.8l-6.71-16.1h-7.21v16.1h-7.9v-40.04ZM182.88,93.75v10.78h6.31c2.3,0,4.27-.65,5.89-1.96,1.06-.87,1.6-2.08,1.6-3.64s-.59-2.72-1.78-3.7c-1.19-.99-3.09-1.48-5.7-1.48h-6.31Z"/>
    <path class="cls-1" d="M223.04,86.76h26.85v6.96h-18.97v9.67h18.38v5.94h-18.38v10.56h18.97v6.91h-26.85v-40.04Z"/>
    <path class="cls-1" d="M267.79,86.76h26.85v6.96h-18.97v9.67h18.37v5.94h-18.37v10.56h18.97v6.91h-26.85v-40.04Z"/>
    <path class="cls-1" d="M312.61,86.76h10.81c5.81,0,9.83.44,12.05,1.31,2.22.87,3.96,2.31,5.2,4.32,1.24,2.01,1.86,4.31,1.86,6.91,0,2.39-.56,4.37-1.68,5.93-1.12,1.56-3.05,2.9-5.81,4.02l7.2,17.56h-7.8l-6.71-16.1h-7.21v16.1h-7.9v-40.04ZM320.51,93.75v10.78h6.31c2.3,0,4.27-.65,5.89-1.96,1.06-.87,1.6-2.08,1.6-3.64s-.59-2.72-1.78-3.7c-1.19-.99-3.09-1.48-5.71-1.48h-6.31Z"/>
    <path class="cls-1" d="M369.87,86.76h8.35l13.04,40.04h-7.75l-3.04-9.4h-12.8l-3.03,9.4h-7.75l12.97-40.04ZM374.06,97.59l-4.59,13.98h9.11l-4.52-13.98Z"/>
    <path class="cls-1" d="M436.46,115.34c-.56,2.25-1.27,4.04-2.12,5.37-1.38,2.14-3.16,3.83-5.35,5.05-2.19,1.22-4.72,1.83-7.6,1.83-3.07,0-6-.77-8.79-2.32-2.79-1.54-4.91-3.85-6.36-6.92-1.45-3.07-2.17-6.69-2.17-10.86s.74-8.18,2.21-11.52c1.47-3.33,3.61-5.83,6.42-7.5,2.81-1.67,5.77-2.5,8.87-2.5,2.29,0,4.52.51,6.71,1.52,2.19,1.01,4,2.44,5.43,4.29,1,1.29,1.79,3,2.38,5.13l-7.33,2.09c-.52-2.16-1.45-3.8-2.79-4.91-1.33-1.11-2.94-1.66-4.8-1.66-2.79,0-4.96,1.35-6.52,4.06-1.55,2.7-2.33,6.24-2.33,10.6,0,2.76.36,5.17,1.07,7.25.72,2.08,1.7,3.61,2.96,4.59,1.26.99,2.62,1.48,4.08,1.48,2.2,0,4.16-.79,5.89-2.38,1.22-1.1,2.18-2.69,2.88-4.77l7.25,2.07Z"/>
    <path class="cls-1" d="M468.43,85.97c3.77,0,6.8.63,9.11,1.88,3.02,1.64,5.32,4,6.91,7.07,1.59,3.07,2.38,7.1,2.38,12.09,0,6.77-1.6,11.89-4.79,15.36-3.19,3.47-7.42,5.21-12.67,5.21s-9.59-1.77-12.86-5.3c-3.27-3.53-4.91-8.69-4.91-15.48,0-4.08.66-7.75,1.99-10.99.72-1.8,1.81-3.47,3.28-5.02,1.47-1.55,3.19-2.74,5.16-3.57,1.96-.83,4.1-1.24,6.4-1.24ZM469.22,92.83c-2.7,0-4.94,1.08-6.7,3.25-1.76,2.16-2.64,5.74-2.64,10.73s.89,8.43,2.68,10.57c1.79,2.15,4.08,3.22,6.87,3.22s4.86-1.07,6.62-3.21c1.76-2.14,2.64-5.64,2.64-10.51,0-5.45-1.07-9.27-3.22-11.49-1.66-1.71-3.74-2.57-6.26-2.57Z"/>
    <path class="cls-1" d="M504.8,86.76h26.85v6.96h-18.97v9.67h18.37v5.94h-18.37v10.56h18.97v6.91h-26.85v-40.04Z"/>
    <path class="cls-1" d="M549.44,86.76h8.33l16.43,26.88v-26.88h7.8v40.04h-7.8l-16.88-27.93v27.93h-7.88v-40.04Z"/>
  </g>
  <path class="cls-1" d="M148.73,107.57c0,34.35-30.28,60.07-55.07,60.07-13.4,0-19.96-8.5-19.96-20.67,0-5.74,1.26-11.65,3.52-17.31-.43,0-.86,0-1.3,0-14.01,0-20.74-6.81-17.73-15.23,0,0,7.17-17.54,8.24-20.75.83-2.5,1.38-4.93.85-6.8-2.23.38-4.63.59-7.16.59-3.57,0-5.64-.63-5.64-1.98,0-1.53,2.42-2.12,5.67-2.12,1.43,0,2.62.15,3.58.4,1.65.42,3.2,1.14,4.52,2.02,8.47-3.65,11.28-13.92,11.28-21.12s-3.5-13.01-10.23-16.02c-22.92,6.1-40.75,27.45-40.77,58.93.02,35.51,25.35,60.67,56.42,60.68v1.45h-.19c-34.37-.11-63.82-27.7-63.83-62.13,0-28.27,20.31-52.1,46.1-59.8-2.63-.84-5.65-1.3-9.06-1.3-11.61,0-27.81,8.18-36.12,23.5l-.97-.81c8.31-15.31,24.11-25.32,44.03-25.32,14.79,0,24.34,9.06,24.34,20.8,0,9.97-7.24,18.95-20.02,21.84,3.32,2.69,5.27,6.87,5.27,11.87,0,3.39-.97,6.61-1.94,8.71l-4.11,10.44c-2.13,5.84,1.05,10.46,7.15,10.46.79,0,1.56,0,2.34-.02,7.75-17.66,25.22-32.64,44.81-32.64,7.37,0,11.13,3.08,11.13,7.42,0,12.57-22.51,24.47-49.43,26.6-1.13,4.36-1.76,9.11-1.76,14.21,0,12.22,5.74,20.85,17.04,20.85,14.32,0,42.23-16.15,42.23-56.81,0-17.77-6.89-33-17.46-43.8-10.35-10.57-24.23-16.89-38.61-17.15-.29,0-.58,0-.87,0,0,0,0,0,.01,0h-.07l-.06-.03v-1.42s0,0,.01,0c.04,0,.07,0,.09,0,6.77,0,13.29,1.09,19.39,3.08,24.94,8.17,44.34,31.61,44.35,59.32ZM84.91,127.65c24.34-1.75,40.19-14.59,40.19-24.13,0-2.81-2.57-5.4-7.15-5.4-12.96,0-27.59,11.09-33.04,29.52Z"/>
</svg>